<svg id="Capa_1" enable-background="new 0 0 512 512" height="512" viewBox="0 0 512 512" width="512" xmlns="http://www.w3.org/2000/svg"><g><g><circle cx="256" cy="256" fill="#e32828" r="256"/></g><g><circle cx="256" cy="256" fill="#ff3345" r="175"/></g><g><g><path d="m30.563 417.591s0-13.074 0-16.431 4.947-3.71 6.36 0 .995 16.799 3.059 20.413v6.088z" fill="#f4958c"/></g><g><path d="m481.437 417.591s0-13.074 0-16.431-4.947-3.71-6.36 0-.995 16.799-3.059 20.413v6.088z" fill="#f4958c"/></g><g><path d="m308.574 132.565-9.607-12.256h-42.967-42.966l-9.607 12.256c-2.026 2.584-1.565 6.323 1.027 8.338 1.841 1.431 2.672 3.809 2.123 6.076l-.092.381c-.5 2.064.139 4.237 1.682 5.697 6.518 6.164 25.26 21.782 47.834 21.782s41.316-15.619 47.834-21.782c1.543-1.459 2.182-3.632 1.682-5.697l-.092-.381c-.549-2.267.282-4.644 2.123-6.076 2.591-2.015 3.051-5.753 1.026-8.338z" fill="#ffcf11"/></g><g><path d="m331.264 411.23-75.264-21.201-75.264 21.201s-190.456 14.134-150.174 79.504h225.438 225.437c40.282-65.37-150.173-79.504-150.173-79.504z" fill="#3e4a68"/></g><g><path d="m304.569 411.23 13.347-3.76-61.916-17.441-75.264 21.201s-190.456 14.134-150.174 79.504h123.832c-40.281-65.37 150.175-79.504 150.175-79.504z" fill="#303a59"/></g><g><path d="m481.437 490.734c-6.154 12.65-51.236 24.381-138.16 18.021s-166.781-24.734-166.781-24.734v-14.299s162.541-16.796 223.67-15.736c61.13 1.06 87.632 23.674 81.271 36.748z" fill="#ffaea1"/></g><g><path d="m404.023 455.32c.023-.392.034-.802.039-1.223-1.289-.043-2.574-.089-3.895-.112-61.129-1.06-223.67 15.736-223.67 15.736v14.299s46.109 10.608 106.388 18.493c6.405-1.394 12.772-2.8 19.059-4.211 25.091-5.63 46.387-10.783 61.586-14.901 8.504-2.304 14.935-4.232 19.662-5.895 5.966-2.098 19.939-7.014 20.831-22.186z" fill="#f4958c"/></g><g><path d="m30.563 490.734c6.782 12.33 34.275 30.035 118.372 16.254s233.571-46.907 233.924-52.914-13.787-17.403-32.161-17.403-21.201 5.344-31.802 5.344-24.028-16.651-35.335-14.354-18.021 25.265-18.021 25.265-107.065-7.067-163.954-3.534-78.797 27.208-71.023 41.342z" fill="#ffcfc2"/></g><g><g><path d="m72.965 490.734c-7.774-14.134 14.134-37.808 71.023-41.342 5.903-.367 12.352-.618 19.159-.776-22.213-.393-44.219-.301-61.561.776-56.889 3.533-78.797 27.208-71.023 41.342 5.844 10.626 27.076 25.241 86.657 20.258-28.106-3.088-40.09-12.685-44.255-20.258z" fill="#ffaea1"/></g></g><g><path d="m325.61 270.95s5.654 57.949 12.721 78.09 82.684 77.03 82.684 77.03 26.325 14.311 33.877 15.768 19.743-6.493 22.526-10.335 14.576-20.803 13.781-23.056-4.24-1.325-6.89 1.59c-1.852 2.037-8.878 8.472-13.442 12.572-2.229 2.002-5.588 2.05-7.876.116-3.194-2.698-2.724-7.76.923-9.807 5.191-2.913 11.271-6.882 12.445-10.037 2.12-5.698-3.048-6.36-5.83-4.373-2.783 1.988-9.193 3.843-14.402 4.373s-19.159 1.436-23.451 7.288l-63.297-72.808c-3.151-3.625-4.978-8.203-5.181-13.002-1.07-25.283-5.445-107.515-17.386-117.366-14.134-11.661-67.49-24.028-67.49-24.028v-25.441h-23.322-23.321v25.441s-53.356 12.367-67.49 24.028c-11.941 9.851-16.316 92.084-17.386 117.366-.203 4.799-2.03 9.377-5.181 13.002l-63.297 72.809c-4.291-5.852-18.242-6.758-23.451-7.288s-11.619-2.385-14.402-4.373-7.95-1.325-5.83 4.373c1.174 3.156 7.254 7.124 12.445 10.037 3.647 2.046 4.117 7.108.923 9.807-2.289 1.933-5.648 1.886-7.876-.116-4.563-4.1-11.59-10.535-13.442-12.572-2.65-2.915-6.095-3.843-6.89-1.59s10.998 19.213 13.781 23.056 14.973 11.793 22.526 10.335 33.877-15.768 33.877-15.768 75.617-56.889 82.684-77.03 12.721-78.09 12.721-78.09h139.219z" fill="#ffaea1"/></g><g><path d="m232.679 182.966s35.688 2.827 39.222-25.441h-39.222z" fill="#f4958c"/></g><g><path d="m307.166 64.823c-10.234-21.981-32.545-33.276-49.832-25.227-.454.212-.896.44-1.334.674-.438-.234-.88-.462-1.334-.674-17.287-8.049-39.598 3.246-49.832 25.227s-4.517 46.325 12.77 54.374c12.311 5.732 27.165 1.648 38.396-9.113 11.23 10.761 26.085 14.845 38.396 9.113 17.287-8.049 23.004-32.393 12.77-54.374z" fill="#ffe854"/></g><g><path d="m244.563 93.97c-9.965-21.404-4.802-45.042 11.437-53.7-.438-.234-.88-.462-1.334-.674-17.287-8.049-39.598 3.246-49.832 25.227s-4.517 46.325 12.77 54.374c12.311 5.732 27.165 1.648 38.396-9.113-4.54-4.35-8.49-9.786-11.437-16.114z" fill="#ffcf11"/></g><g><path d="m291.461 113.465s4.567-11.12 12.709-8.539c8.142 2.582-.197 26.68-16.085 28.198z" fill="#ffaea1"/></g><g><path d="m220.539 113.465s-4.567-11.12-12.709-8.539c-8.142 2.582.197 26.68 16.085 28.198z" fill="#f4958c"/></g><g><path d="m292.599 99.432c-.465-1.135-.841-2.758-1.197-4.634l-35.402-10.268-35.402 10.267c-.356 1.876-.732 3.5-1.197 4.634-2.092 5.102-4.72 6.142-5.07 6.26-.026.798-.042 1.6-.042 2.41 0 30.715 18.675 66.737 41.711 66.737s41.711-36.022 41.711-66.737c0-.81-.016-1.612-.042-2.41-.35-.117-2.978-1.157-5.07-6.259z" fill="#ffcfc2"/></g><g><path d="m228.633 108.102c0-5.723.656-11.14 1.862-16.175l-9.897 2.87c-.356 1.876-.732 3.5-1.197 4.634-2.092 5.102-4.72 6.142-5.07 6.26-.026.798-.042 1.6-.042 2.41 0 30.715 18.675 66.737 41.711 66.737 2.446 0 4.842-.41 7.172-1.172-19.619-6.42-34.539-38.11-34.539-65.564z" fill="#ffaea1"/></g><g><path d="m256 78.897c-14.58 0-20.415-4.623-25.46-4.634h-.006c-.933-.002-1.84.155-2.769.528-4.723 1.894-5.803 12.827-7.167 20.007h70.804c-1.364-7.18-2.444-18.113-7.167-20.007-.93-.373-1.836-.529-2.769-.528h-.006c-5.044.012-10.88 4.634-25.46 4.634z" fill="#fff"/></g><g><path d="m248.05 86.847c0-4.391 3.559-7.95 7.95-7.95-14.58 0-20.415-4.623-25.46-4.634h-.006c-.933-.002-1.84.155-2.769.528-4.723 1.894-5.803 12.827-7.167 20.007h35.402c-4.391 0-7.95-3.56-7.95-7.951z" fill="#ebf0f3"/></g><g><path d="m314.303 337.557c2.12-11.131 11.307-66.607 11.307-66.607-8.772-20.99-12.198-43.83-9.971-66.47l1.087-11.054c-6.762-2.227-13.617-4.232-19.582-5.878l-5.857 29.132c-2.036 10.129-8.327 18.895-17.271 24.066-11.146 6.445-24.886 6.445-36.033 0-8.944-5.171-15.235-13.937-17.271-24.066l-5.857-29.132c-5.964 1.645-12.82 3.651-19.581 5.878l1.087 11.054c2.227 22.64-1.199 45.479-9.971 66.47s9.187 55.476 11.307 66.607-16.961 73.673-16.961 73.673h150.527c.001 0-19.08-62.543-16.96-73.673z" fill="#9c68e1"/></g><g><path d="m212.103 327.142c19.748-1.229 43.897-17.142 43.897-17.142-24.5 6-51.321.918-57.253-12.045l-12.357-27.005s9.187 55.476 11.307 66.607-16.961 73.673-16.961 73.673h25.78l9.86-62.315c.953-6.025.108-12.197-2.43-17.744z" fill="#8c4cd1"/></g></g></g></svg>